<mxfile host="app.diagrams.net" modified="2024-05-14T15:11:41.117Z" agent="Mozilla/5.0 (Windows NT 10.0; Win64; x64; rv:125.0) Gecko/20100101 Firefox/125.0" version="24.4.0" etag="MgmUnmp5DwAE_DaGpJ-M" type="github">
  <diagram name="Page-1" id="16glwOblu38XuQ45_bfo">
    <mxGraphModel>
      <root>
        <mxCell id="0" />
        <mxCell id="1" parent="0" />
      </root>
    </mxGraphModel>
  </diagram>
</mxfile>
